<?xml version="1.0" standalone="no"?>
<!DOCTYPE svg PUBLIC "-//W3C//DTD SVG 20010904//EN"
 "http://www.w3.org/TR/2001/REC-SVG-20010904/DTD/svg10.dtd">
<svg version="1.0" xmlns="http://www.w3.org/2000/svg"
 width="2400.000000pt" height="2400.000000pt" viewBox="0 0 2400.000000 2400.000000"
 preserveAspectRatio="xMidYMid meet">
<metadata>
Created by potrace 1.11, written by Peter Selinger 2001-2013
</metadata>
<g transform="translate(0.000000,2400.000000) scale(0.100000,-0.100000)"
fill="#000000" stroke="none">
<path d="M0 23963 c0 -37 23 -61 712 -750 l713 -713 -713 0 -712 0 0 -50 0
-50 725 0 725 0 0 -46 c0 -42 -5 -51 -61 -112 -242 -263 -502 -649 -676 -1004
-228 -462 -365 -925 -435 -1468 -21 -161 -22 -202 -25 -1717 l-4 -1553 -124 0
-125 0 0 -50 0 -50 125 0 125 0 0 -2175 0 -2175 -125 0 -125 0 0 -50 0 -50
125 0 125 0 0 -2175 0 -2175 -125 0 -125 0 0 -50 0 -50 125 0 124 0 4 -1552
c3 -1516 4 -1557 25 -1718 70 -543 207 -1006 435 -1468 174 -355 434 -741 676
-1004 56 -61 61 -70 61 -112 l0 -46 -725 0 -725 0 0 -50 0 -50 717 0 718 0
-718 -718 c-655 -655 -717 -720 -717 -750 0 -31 1 -32 42 -32 l43 0 682 682
683 683 0 -683 0 -682 50 0 50 0 0 733 c0 698 1 735 18 750 35 32 63 20 162
-69 637 -574 1426 -959 2252 -1099 313 -53 389 -57 971 -62 l547 -5 0 -124 0
-124 50 0 50 0 0 125 0 125 950 0 950 0 0 -125 0 -125 50 0 50 0 0 125 0 125
2175 0 2175 0 0 -125 0 -125 55 0 55 0 0 125 0 125 2175 0 2175 0 0 -125 0
-125 50 0 50 0 0 125 0 125 950 0 950 0 0 -125 0 -125 50 0 50 0 0 124 0 124
543 5 c426 3 572 8 682 21 974 118 1789 482 2516 1123 99 87 122 103 151 103
19 0 39 -5 46 -12 9 -9 12 -189 12 -750 l0 -738 50 0 50 0 0 687 0 688 688
-688 c627 -627 690 -687 720 -687 31 0 32 1 32 44 l0 44 -712 706 -712 706
712 0 712 0 0 50 0 50 -720 0 -720 0 0 51 c0 48 3 53 73 132 581 654 969 1512
1081 2392 33 259 36 405 36 1863 l0 1462 125 0 125 0 0 50 0 50 -125 0 -125 0
0 2175 0 2175 125 0 125 0 0 50 0 50 -125 0 -125 0 0 2175 0 2175 125 0 125 0
0 50 0 50 -125 0 -125 0 0 1463 c0 1457 -3 1603 -36 1862 -112 880 -500 1738
-1081 2392 -70 79 -73 84 -73 132 l0 51 720 0 720 0 0 50 0 50 -712 0 -713 0
713 713 c689 689 712 713 712 750 0 36 -1 37 -37 37 -37 0 -60 -22 -720 -682
l-683 -683 0 683 0 682 -50 0 -50 0 0 -733 c0 -698 -1 -735 -18 -750 -39 -36
-67 -23 -191 86 -727 641 -1543 1005 -2516 1123 -110 13 -256 18 -682 21
l-543 5 0 124 0 124 -50 0 -50 0 0 -125 0 -125 -950 0 -950 0 0 125 0 125 -50
0 -50 0 0 -125 0 -125 -2175 0 -2175 0 0 125 0 125 -55 0 -55 0 0 -125 0 -125
-2175 0 -2175 0 0 125 0 125 -50 0 -50 0 0 -125 0 -125 -950 0 -950 0 0 125 0
125 -50 0 -50 0 0 -124 0 -124 -547 -5 c-582 -5 -657 -9 -973 -63 -824 -139
-1614 -525 -2250 -1098 -75 -67 -101 -86 -125 -86 -17 0 -36 5 -43 12 -9 9
-12 189 -12 750 l0 738 -50 0 -50 0 0 -687 0 -688 -688 688 c-665 665 -688
687 -725 687 -36 0 -37 -1 -37 -37z m5500 -888 l0 -575 -1857 0 -1858 1 45 40
c285 254 661 504 1005 670 464 223 966 365 1465 414 214 21 218 21 738 23
l462 2 0 -575z m2000 0 l0 -575 -950 0 -950 0 0 575 0 575 950 0 950 0 0 -575z
m4450 0 l0 -575 -2175 0 -2175 0 0 575 0 575 2175 0 2175 0 0 -575z m4460 0
l0 -575 -2175 0 -2175 0 0 575 0 575 2175 0 2175 0 0 -575z m2000 0 l0 -575
-950 0 -950 0 0 575 0 575 950 0 950 0 0 -575z m1300 551 c742 -84 1407 -328
2011 -737 134 -91 337 -248 449 -348 l45 -40 -1852 -1 -1853 0 0 576 0 576
528 -5 c396 -3 563 -9 672 -21z m-14211 -2303 l0 -1078 -137 -110 c-194 -157
-444 -378 -607 -537 l-141 -137 -1470 1470 -1469 1469 1913 0 1912 0 -1 -1077z
m2001 623 l0 -454 -217 -109 c-508 -256 -1011 -563 -1463 -895 -100 -73 -191
-139 -201 -147 -19 -13 -19 10 -19 1023 l0 1036 950 0 950 0 0 -454z m2920
438 c-882 -145 -1547 -326 -2310 -629 -129 -51 -296 -121 -370 -154 -74 -34
-136 -61 -137 -61 -2 0 -3 194 -3 430 l0 430 1453 -1 c1278 -1 1442 -3 1367
-15z m1530 -1932 l0 -1949 -182 -7 c-1001 -37 -1973 -299 -2832 -762 -469
-253 -838 -512 -1288 -904 l-48 -42 0 2320 0 2319 188 83 c1293 570 2630 863
4050 888 l112 2 0 -1948z m685 1927 c1260 -75 2485 -377 3650 -901 l120 -54 3
-2322 2 -2322 -152 131 c-1138 981 -2524 1528 -4020 1585 l-178 7 0 1950 0
1950 203 -7 c111 -4 279 -11 372 -17z m3775 -413 l0 -434 -140 64 c-76 35
-246 106 -377 158 -767 304 -1430 485 -2313 630 -75 12 90 14 1373 15 l1457 1
0 -434z m2000 -607 l0 -1041 -27 21 c-502 386 -1134 780 -1682 1052 l-190 94
-1 458 0 457 950 0 950 0 0 -1041z m3222 344 c-380 -384 -1040 -1047 -1466
-1473 l-775 -774 -133 130 c-162 158 -350 325 -577 514 l-171 142 0 1079 0
1079 1906 0 1906 0 -690 -697z m-18560 -850 l1467 -1467 -127 -131 c-680 -694
-1329 -1612 -1795 -2537 l-109 -218 -479 0 -479 0 0 2880 0 2881 22 29 c12 17
24 30 27 30 3 0 666 -660 1473 -1467z m19361 1433 l27 -35 0 -2875 0 -2876
-484 0 -484 0 -109 218 c-465 922 -1113 1840 -1790 2533 -68 69 -123 130 -123
135 0 9 2921 2934 2930 2934 3 0 17 -16 33 -34z m-20983 -2961 l0 -2825 -550
0 -551 0 4 1533 c3 1373 5 1547 20 1677 51 425 139 782 284 1150 145 368 327
696 563 1015 72 97 217 275 225 275 3 0 5 -1271 5 -2825z m21235 2673 c199
-248 390 -552 526 -833 219 -456 353 -923 416 -1455 15 -130 17 -304 20 -1677
l4 -1533 -546 0 -545 0 0 2821 c0 1861 3 2818 10 2814 5 -3 57 -65 115 -137z
m-15215 -5333 l-30 -30 -920 920 -920 920 0 863 0 863 203 150 c458 342 949
646 1487 923 l205 105 3 -2342 2 -2342 -30 -30z m9264 4596 c529 -273 1043
-593 1481 -923 l190 -143 3 -860 2 -860 -922 -922 -922 -922 -28 26 -28 27 0
2343 c0 1289 3 2343 7 2343 3 0 101 -49 217 -109z m-11234 -1918 l0 -768 -407
408 -408 409 130 125 c201 194 656 592 678 593 4 0 7 -345 7 -767z m13280 542
c135 -115 415 -373 492 -452 l48 -48 -405 -405 -405 -405 0 768 0 768 73 -59
c39 -33 128 -108 197 -167z m-13721 -1016 l441 -436 0 -966 0 -967 -1441 0
-1441 0 115 223 c387 751 822 1401 1356 2027 199 233 508 563 521 558 4 -2
206 -199 449 -439z m14437 338 c714 -743 1290 -1550 1771 -2484 l115 -223
-1436 0 -1436 0 0 967 0 968 437 437 c241 241 441 438 444 438 4 0 51 -46 105
-103z m-7546 -1757 l0 -950 -2175 0 -2175 0 0 74 0 74 93 84 c1141 1042 2612
1629 4175 1666 l82 2 0 -950z m380 940 c1503 -83 2891 -663 3983 -1663 l97
-89 0 -69 0 -69 -2175 0 -2175 0 0 950 0 950 43 0 c23 0 125 -5 227 -10z
m-4992 -1857 l-32 -33 -853 0 -853 0 0 917 0 918 885 -885 885 -885 -32 -32z
m11072 882 l0 -915 -858 0 -858 0 -29 30 -29 31 884 884 c487 487 886 885 887
885 2 0 3 -412 3 -915z m-16960 -3190 l0 -2175 -550 0 -550 0 0 2175 0 2175
550 0 550 0 0 -2175z m1007 2163 c-3 -7 -35 -80 -72 -163 -409 -913 -692
-1958 -819 -3025 -12 -101 -14 84 -15 1543 l-1 1657 456 0 c361 0 455 -3 451
-12z m3043 -2163 l0 -2175 -1951 0 -1952 0 7 213 c46 1426 328 2681 886 3950
l83 187 1463 0 1464 0 0 -2175z m1688 2148 c-59 -64 -220 -256 -303 -362 -618
-786 -1045 -1702 -1250 -2686 l-34 -160 0 1618 -1 1617 807 0 807 0 -26 -27z
m312 -2148 l0 -2175 -950 0 -950 0 0 48 c0 95 21 430 36 567 143 1364 713
2636 1632 3643 l84 92 74 0 74 0 0 -2175z m3385 2136 c-720 -186 -1361 -533
-1921 -1039 l-111 -100 -589 589 -589 589 1680 0 1680 -1 -150 -38z m1065
-2098 l0 -2138 -1510 1510 c-831 830 -1509 1513 -1508 1516 2 3 46 45 98 93
138 128 332 281 499 395 701 475 1504 733 2359 759 l62 2 0 -2137z m505 2111
c712 -70 1409 -324 2016 -735 81 -55 204 -146 275 -203 137 -110 317 -273 322
-291 1 -5 -675 -687 -1503 -1515 l-1505 -1505 0 2139 0 2138 123 -6 c67 -4
190 -14 272 -22z m3289 -565 l-592 -592 -113 103 c-566 510 -1203 855 -1924
1041 l-150 38 1685 1 1685 0 -591 -591z m988 499 c404 -443 742 -938 1008
-1479 404 -821 617 -1668 656 -2611 l6 -168 -946 0 -946 0 0 2175 0 2175 69 0
69 0 84 -92z m1677 -1550 l0 -1643 -39 185 c-135 658 -358 1264 -675 1835
-242 438 -492 789 -865 1218 l-42 47 811 0 811 0 -1 -1642z m3101 1455 c557
-1266 840 -2526 886 -3950 l7 -213 -1947 0 -1946 0 0 2175 0 2175 1459 0 1458
0 83 -187z m949 -1520 l-1 -1708 -23 200 c-95 810 -272 1580 -532 2315 -73
208 -227 594 -302 759 -34 74 -61 135 -61 137 0 2 207 4 460 4 l460 0 -1
-1707z m1191 -468 l0 -2175 -545 0 -545 0 0 2175 0 2175 545 0 545 0 0 -2175z
m-14970 813 c-509 -563 -855 -1202 -1041 -1923 l-38 -150 -1 1685 0 1685 592
-592 591 -591 -103 -114z m7729 -410 l0 -1703 -43 170 c-185 729 -537 1384
-1044 1940 l-100 110 591 593 c326 325 593 592 594 592 2 0 3 -766 2 -1702z
m-6034 -1068 l1510 -1510 -2144 0 -2144 0 7 133 c28 521 123 970 303 1427 198
502 476 949 839 1350 55 60 104 109 109 109 6 1 690 -678 1520 -1509z m4869
1410 c275 -296 538 -685 717 -1055 261 -544 402 -1103 435 -1732 l7 -133
-2139 0 -2139 0 1510 1510 c830 831 1513 1509 1516 1508 3 -2 45 -46 93 -98z
m-13794 -5195 l0 -2175 -550 0 -550 0 0 2175 0 2175 550 0 550 0 0 -2175z
m4050 0 l0 -2175 -1464 0 -1463 0 -83 188 c-558 1268 -840 2523 -886 3950 l-7
212 1952 0 1951 0 0 -2175z m2000 0 l0 -2175 -74 0 -74 0 -84 93 c-920 1007
-1489 2277 -1632 3642 -15 137 -36 472 -36 568 l0 47 950 0 950 0 0 -2175z
m2870 660 l-1514 -1514 -71 76 c-391 425 -672 870 -878 1393 -180 457 -275
906 -303 1428 l-7 132 2144 0 2144 0 -1515 -1515z m6026 1383 c-28 -522 -123
-971 -303 -1428 -163 -414 -387 -800 -657 -1136 -97 -120 -270 -316 -285 -322
-3 -1 -686 677 -1516 1508 l-1510 1510 2139 0 2139 0 -7 -132z m2000 -35 c-32
-764 -174 -1450 -441 -2128 -285 -723 -702 -1391 -1223 -1962 l-84 -93 -69 0
-69 0 0 2175 0 2175 946 0 946 0 -6 -167z m4000 -45 c-46 -1427 -328 -2682
-886 -3950 l-83 -188 -1458 0 -1459 0 0 2175 0 2175 1946 0 1947 0 -7 -212z
m1254 -1963 l0 -2175 -545 0 -545 0 0 2175 0 2175 545 0 545 0 0 -2175z
m-11700 -41 l0 -2136 -132 7 c-303 15 -600 57 -861 121 -731 178 -1420 552
-1961 1061 l-69 65 1509 1509 c830 830 1510 1509 1511 1509 2 0 3 -961 3
-2136z m3118 -879 c-5 -18 -185 -181 -322 -291 -570 -459 -1278 -777 -1996
-898 -166 -28 -380 -51 -567 -62 l-123 -6 0 2138 0 2139 1505 -1505 c828 -828
1504 -1510 1503 -1515z m1342 513 l0 -1703 -594 594 -594 594 100 111 c515
569 882 1258 1050 1965 18 78 34 141 35 141 2 0 3 -766 3 -1702z m-8690 1237
c193 -596 521 -1158 960 -1643 l103 -114 -591 -591 -592 -592 0 1685 1 1685
38 -150 c22 -82 58 -208 81 -280z m14740 -1300 l0 -1705 -460 0 c-253 0 -460
2 -460 4 0 2 27 63 61 137 75 165 229 551 302 759 263 742 454 1581 534 2345
10 91 19 165 20 165 2 0 3 -767 3 -1705z m-20855 1205 c95 -672 267 -1376 491
-2008 74 -210 228 -596 303 -761 34 -74 61 -135 61 -137 0 -2 -205 -4 -455 -4
l-455 0 1 1658 c1 1458 3 1643 15 1542 8 -63 25 -194 39 -290z m16805 -1270
l0 -1640 -811 0 -811 0 42 48 c374 426 642 808 893 1267 303 556 544 1229 658
1838 13 70 25 127 27 127 1 0 2 -738 2 -1640z m-12711 1152 c197 -772 555
-1539 1019 -2182 126 -175 344 -445 471 -582 l25 -28 -807 0 -807 0 1 1618 0
1617 34 -160 c18 -88 47 -215 64 -283z m3491 -1906 c496 -398 1078 -689 1695
-847 l150 -38 -1680 -1 -1680 0 589 589 589 589 111 -100 c61 -55 163 -142
226 -192z m6555 -296 l590 -590 -1685 0 -1685 1 150 38 c714 183 1373 540
1920 1039 61 55 112 101 115 101 3 1 271 -264 595 -589z m-14295 -3516 c0
-2618 -1 -2825 -16 -2813 -36 30 -229 280 -323 418 -409 604 -648 1256 -738
2011 -15 130 -17 304 -20 1678 l-4 1532 551 0 550 0 0 -2826z m1167 2609 c300
-595 669 -1182 1077 -1708 224 -290 509 -619 730 -843 l121 -122 -1470 -1470
-1470 -1471 -27 33 -28 32 0 2883 0 2883 479 0 479 0 109 -217z m2883 -751 l0
-967 -443 -443 -443 -443 -105 108 c-714 742 -1293 1554 -1776 2491 l-115 222
1441 0 1441 0 0 -968z m1838 935 l32 -32 -885 -885 -885 -885 0 918 0 917 853
0 853 0 32 -33z m4612 -918 l0 -952 -157 7 c-87 4 -241 14 -343 22 -1386 113
-2721 696 -3757 1642 l-93 84 0 74 0 74 2175 0 2175 0 0 -951z m4460 882 l0
-69 -97 -89 c-1003 -919 -2300 -1501 -3648 -1637 -145 -15 -476 -36 -562 -36
l-43 0 0 950 0 950 2175 0 2175 0 0 -69z m2000 -848 l0 -918 -887 887 -887
887 29 31 29 30 858 0 858 0 0 -917z m2857 695 c-392 -760 -838 -1425 -1382
-2058 -115 -135 -374 -417 -449 -490 l-46 -45 -440 440 -440 440 0 967 0 968
1436 0 1436 0 -115 -222z m1193 -2655 l-1 -2878 -29 -35 -29 -35 -1466 1465
c-806 806 -1465 1470 -1465 1475 0 6 30 40 66 75 183 179 552 603 770 885 407
526 778 1115 1077 1708 l109 217 484 0 484 0 0 -2877z m1187 1345 c-3 -1374
-5 -1548 -20 -1678 -90 -755 -329 -1407 -738 -2011 -91 -134 -296 -400 -319
-414 -7 -4 -10 953 -10 2814 l0 2821 545 0 546 0 -4 -1532z m-5239 -1303 l-3
-860 -190 -143 c-322 -242 -780 -540 -1150 -747 -134 -75 -538 -285 -548 -285
-4 0 -7 1054 -7 2342 l0 2342 27 28 27 29 923 -923 923 -923 -2 -860z m-10936
2668 l28 -27 0 -2344 0 -2344 -212 110 c-539 276 -1027 579 -1485 921 l-203
150 0 863 0 863 917 917 c505 505 920 918 922 918 3 0 18 -12 33 -27z m8930
-4755 c-14 -14 -383 -173 -592 -255 -1142 -450 -2257 -676 -3547 -719 l-203
-7 0 1952 0 1951 78 0 c42 0 151 5 242 10 1490 91 2849 659 3975 1663 l50 45
3 -2316 c1 -1274 -1 -2319 -6 -2324z m-8567 4433 c713 -601 1569 -1046 2483
-1291 488 -131 1112 -219 1555 -220 l77 0 0 -1951 0 -1952 -207 7 c-1435 47
-2685 327 -3955 886 l-188 83 0 2319 0 2320 48 -42 c26 -23 110 -94 187 -159z
m-2335 -2357 c0 -476 -4 -764 -9 -762 -35 12 -477 399 -681 596 l-125 121 405
405 c223 223 406 406 407 406 2 0 3 -345 3 -766z m13772 -87 c-127 -130 -481
-448 -689 -619 l-73 -59 0 768 0 768 405 -405 405 -405 -48 -48z m1593 -1497
l1470 -1470 -1913 0 -1912 0 0 1079 0 1078 198 165 c221 185 477 415 597 537
44 45 82 81 85 81 3 0 667 -661 1475 -1470z m-16106 1328 c160 -156 412 -378
603 -533 l137 -110 0 -1077 1 -1078 -1906 0 -1906 0 1458 1464 c803 806 1463
1465 1468 1465 5 1 70 -59 145 -131z m13651 -1758 l0 -1040 -950 0 -950 0 0
458 1 457 190 94 c499 247 1095 614 1544 950 88 65 161 120 163 120 1 1 2
-467 2 -1039z m-12590 872 c451 -331 957 -640 1463 -895 l217 -109 0 -454 0
-454 -950 0 -950 0 0 1036 c0 1013 0 1036 19 1023 10 -8 101 -74 201 -147z
m1920 -1113 c74 -33 241 -103 370 -154 763 -303 1419 -482 2310 -629 75 -12
-84 -14 -1367 -15 l-1453 -1 0 430 c0 237 1 430 3 430 1 0 63 -27 137 -61z
m8670 -369 l0 -430 -1457 1 c-1288 1 -1448 3 -1373 15 734 121 1317 267 1918
480 207 73 628 241 772 309 63 29 121 53 128 54 9 1 12 -91 12 -429z m-10910
-1106 l0 -576 -537 5 c-570 6 -655 11 -960 62 -791 133 -1570 507 -2173 1044
l-45 40 1858 1 1857 0 0 -576z m2000 1 l0 -575 -950 0 -950 0 0 575 0 575 950
0 950 0 0 -575z m4450 0 l0 -575 -2175 0 -2175 0 0 575 0 575 2175 0 2175 0 0
-575z m4460 0 l0 -575 -2175 0 -2175 0 0 575 0 575 2175 0 2175 0 0 -575z
m2000 0 l0 -575 -950 0 -950 0 0 575 0 575 950 0 950 0 0 -575z m3760 534
c-603 -537 -1382 -911 -2173 -1044 -304 -51 -390 -56 -954 -62 l-533 -5 0 576
0 576 1853 0 1852 -1 -45 -40z"/>
</g>
</svg>
